custom-analysis
version=1
nRows=4
nColumns=98
inDegrees=no

This file contains tibia displacement and acting force.

Units are S.I. units (seconds, meters, Newtons, ...)
Angles are in degrees.

endheader
time	APT	SIT	knee_angle	aACL_R_force	pACL_R_force	aPCL_R_force	pPCL_R_force	aMCL_R_force	mMCL_R_force	pMCL_R_force	aLCL_R_force	mLCL_R_force	pLCL_R_force	aPCL_L_force	pPCL_L_force	aMCL_L_force	aLCL_L_force	aACL_R_length	pACL_R_length	aPCL_R_length	pPCL_R_length	aMCL_R_length	mMCL_R_length	pMCL_R_length	aLCL_R_length	mLCL_R_length	pLCL_R_length	aPCL_L_length	pPCL_L_length	aMCL_L_length	aLCL_L_length	aACL_R_strain	pACL_R_strain	aPCL_R_strain	pPCL_R_strain	aMCL_R_strain	mMCL_R_strain	pMCL_R_strain	aLCL_R_strain	mLCL_R_strain	pLCL_R_strain	aPCL_L_strain	pPCL_L_strain	aMCL_L_strain	aLCL_L_strain	femur_lat_meniscii_r.femur_lat_r.force.X	femur_lat_meniscii_r.femur_lat_r.force.Y	femur_lat_meniscii_r.femur_lat_r.force.Z	femur_lat_meniscii_r.femur_lat_r.torque.X	femur_lat_meniscii_r.femur_lat_r.torque.Y	femur_lat_meniscii_r.femur_lat_r.torque.Z	femur_lat_meniscii_r.meniscus_lat_r.force.X	femur_lat_meniscii_r.meniscus_lat_r.force.Y	femur_lat_meniscii_r.meniscus_lat_r.force.Z	femur_lat_meniscii_r.meniscus_lat_r.torque.X	femur_lat_meniscii_r.meniscus_lat_r.torque.Y	femur_lat_meniscii_r.meniscus_lat_r.torque.Z	femur_med_meniscii_r.femur_med_r.force.X	femur_med_meniscii_r.femur_med_r.force.Y	femur_med_meniscii_r.femur_med_r.force.Z	femur_med_meniscii_r.femur_med_r.torque.X	femur_med_meniscii_r.femur_med_r.torque.Y	femur_med_meniscii_r.femur_med_r.torque.Z	femur_med_meniscii_r.meniscus_med_r.force.X	femur_med_meniscii_r.meniscus_med_r.force.Y	femur_med_meniscii_r.meniscus_med_r.force.Z	femur_med_meniscii_r.meniscus_med_r.torque.X	femur_med_meniscii_r.meniscus_med_r.torque.Y	femur_med_meniscii_r.meniscus_med_r.torque.Z	femur_med_tibia_r.tibia_upper_r.force.X	femur_med_tibia_r.tibia_upper_r.force.Y	femur_med_tibia_r.tibia_upper_r.force.Z	femur_med_tibia_r.tibia_upper_r.torque.X	femur_med_tibia_r.tibia_upper_r.torque.Y	femur_med_tibia_r.tibia_upper_r.torque.Z	femur_med_tibia_r.femur_med_r.force.X	femur_med_tibia_r.femur_med_r.force.Y	femur_med_tibia_r.femur_med_r.force.Z	femur_med_tibia_r.femur_med_r.torque.X	femur_med_tibia_r.femur_med_r.torque.Y	femur_med_tibia_r.femur_med_r.torque.Z	femur_lat_tibia_r.tibia_upper_r.force.X	femur_lat_tibia_r.tibia_upper_r.force.Y	femur_lat_tibia_r.tibia_upper_r.force.Z	femur_lat_tibia_r.tibia_upper_r.torque.X	femur_lat_tibia_r.tibia_upper_r.torque.Y	femur_lat_tibia_r.tibia_upper_r.torque.Z	femur_lat_tibia_r.femur_lat_r.force.X	femur_lat_tibia_r.femur_lat_r.force.Y	femur_lat_tibia_r.femur_lat_r.force.Z	femur_lat_tibia_r.femur_lat_r.torque.X	femur_lat_tibia_r.femur_lat_r.torque.Y	femur_lat_tibia_r.femur_lat_r.torque.Z	femur_lat_meniscii_force_r	femur_med_meniscii_force_r	femur_lat_tibia_force_r	femur_med_tibia_force_r
      0.13644978	      0.01543167	      0.01235688	     40.99038528	     92.87285180	     23.22717279	      0.00000000	      0.00000000	      0.00000000	      0.00000000	      0.00000000	      0.00000000	      0.00000000	      0.00000000	      0.00000000	      0.00000000	      0.00000001	      0.00000000	      0.03480221	      0.02695703	      0.02948434	      0.02828319	      0.05832054	      0.05942064	      0.05773367	      0.05110519	      0.04753099	      0.04322523	      0.01525851	      0.01651186	      0.06550154	      0.04489616	      0.12245272	      0.07575534	     -0.05180719	     -0.05368786	     -0.02842822	     -0.00623574	     -0.01693117	     -0.08703561	     -0.15603386	     -0.17418805	      0.00000079	     -0.32847694	      0.00000060	     -0.00000086	     -6.80914873	     38.62243918	      5.53812695	     -3.17713831	     -0.14542793	     -2.95862463	      6.80914873	    -38.62243918	     -5.53812695	      1.14355226	      0.05738327	      1.07233881	      5.33459193	     12.37142806	     -0.18409583	      0.31591128	     -0.10260304	      2.06757830	     -5.33459193	    -12.37142806	      0.18409583	     -0.21165185	      0.09181584	      0.22866344	    -38.10996379	   -538.45471901	    103.15972339	    -10.42361622	      2.95876954	     11.87974039	     38.10996379	    538.45471901	   -103.15972339	     51.68059613	     -1.08054738	     13.16530152	     46.01950524	   -587.43099187	   -127.17513658	     18.39582534	     -1.75311246	     14.83841730	    -46.01950524	    587.43099187	    127.17513658	    -65.89820839	     -0.56494043	    -21.32034516	     39.60717314	     13.47382628	    602.79887229	    549.57054351
      0.13728496	      0.01543611	      0.01248622	     41.37881786	     90.39085769	     20.79678104	      0.00000000	      0.00000000	      0.00000000	      0.00000000	      0.00000000	      0.00000000	      0.00000000	      0.00000000	      0.00000000	      0.00000000	      0.00000001	      0.00000000	      0.03476637	      0.02691431	      0.02955945	      0.02833690	      0.05834976	      0.05941755	      0.05769761	      0.05110009	      0.04750030	      0.04317112	      0.01525851	      0.01651186	      0.06550154	      0.04489616	      0.12129695	      0.07405065	     -0.04939160	     -0.05189085	     -0.02794140	     -0.00628751	     -0.01754508	     -0.08712676	     -0.15657884	     -0.17522176	      0.00000079	     -0.32847694	      0.00000060	     -0.00000086	     -6.77817136	     38.95626020	      5.49509768	     -3.16592279	     -0.14432000	     -2.95094931	      6.77817136	    -38.95626020	     -5.49509768	      1.14892238	      0.05642510	      1.08610207	      5.41950635	     12.12857472	     -0.24000351	      0.33403311	     -0.10407323	      2.10346627	     -5.41950635	    -12.12857472	      0.24000351	     -0.20904609	      0.09424490	      0.22218397	    -38.24106554	   -532.19227809	    103.05191131	    -10.29627432	      2.97445976	     11.81769002	     38.24106554	    532.19227809	   -103.05191131	     51.49044051	     -1.08905398	     13.20569066	     45.15681555	   -585.97221854	   -125.19882603	     18.26372590	     -1.75655436	     14.89261444	    -45.15681555	    585.97221854	    125.19882603	    -65.02305245	     -0.53751941	    -21.02077724	     39.92154699	     13.28649598	    600.89710011	    543.42496849
      0.13787016	      0.01543812	      0.01257725	     41.65110901	     88.00266438	     18.50818321	      0.00000000	      0.00000000	      0.00000000	      0.00000000	      0.00000000	      0.00000000	      0.00000000	      0.00000000	      0.00000000	      0.00000000	      0.00000001	      0.00000000	      0.03474089	      0.02688430	      0.02961222	      0.02837469	      0.05836995	      0.05941522	      0.05767236	      0.05109625	      0.04747850	      0.04313296	      0.01525851	      0.01651186	      0.06550154	      0.04489616	      0.12047523	      0.07285304	     -0.04769457	     -0.05062624	     -0.02760501	     -0.00632647	     -0.01797507	     -0.08719538	     -0.15696592	     -0.17595077	      0.00000079	     -0.32847694	      0.00000060	     -0.00000086	     -6.94346935	     39.36670868	      5.57606219	     -3.20877062	     -0.14822147	     -3.02515926	      6.94346935	    -39.36670868	     -5.57606219	      1.16098312	      0.05878866	      1.10658772	      5.40873469	     11.94669020	     -0.28660993	      0.34921938	     -0.10405459	      2.09970809	     -5.40873469	    -11.94669020	      0.28660993	     -0.20685826	      0.09523375	      0.21917056	    -37.56271107	   -529.78808996	    103.13309732	    -10.23847294	      2.97865018	     11.84376037	     37.56271107	    529.78808996	   -103.13309732	     51.45469982	     -1.08320050	     12.90464680	     46.21010314	   -586.05045218	   -124.24507422	     18.21231297	     -1.72892033	     15.01519757	    -46.21010314	    586.05045218	    124.24507422	    -64.61403872	     -0.55199485	    -21.51442630	     40.36139230	     13.11716292	    600.85551059	    541.03864306
      0.13845536	      0.01543791	      0.01266862	     41.92323428	     86.26308313	     16.88658411	      0.00000000	      0.00000000	      0.00000000	      0.00000000	      0.00000000	      0.00000000	      0.00000000	      0.00000000	      0.00000000	      0.00000000	      0.00000001	      0.00000000	      0.03471410	      0.02685327	      0.02966554	      0.02841310	      0.05838978	      0.05941270	      0.05764709	      0.05109200	      0.04745625	      0.04309443	      0.01525851	      0.01651186	      0.06550154	      0.04489616	      0.11961098	      0.07161463	     -0.04597990	     -0.04934128	     -0.02727466	     -0.00636850	     -0.01840535	     -0.08727120	     -0.15736099	     -0.17668694	      0.00000079	     -0.32847694	      0.00000060	     -0.00000086	     -6.99700271	     39.49582537	      5.62231809	     -3.23050708	     -0.14955363	     -3.05204518	      6.99700271	    -39.49582537	     -5.62231809	      1.16457553	      0.05895398	      1.11743023	      5.46253511	     11.58672682	     -0.23873364	      0.32200942	     -0.10575127	      2.12458648	     -5.46253511	    -11.58672682	      0.23873364	     -0.19921233	      0.09593915	      0.20894722	    -38.07338046	   -526.98257872	    103.31596802	    -10.18319834	      2.99836754	     11.81902806	     38.07338046	    526.98257872	   -103.31596802	     51.45956921	     -1.09418147	     13.10455255	     46.33336728	   -584.47791034	   -123.36315625	     18.12462564	     -1.72306883	     15.06541709	    -46.33336728	    584.47791034	    123.36315625	    -64.20069346	     -0.54829433	    -21.60949232	     40.50294717	     12.81204597	    599.14912744	    538.36271214
